#!OML:ASF I:\Actors\actors\Patient Classification 2\Patient 1\Session 1\actor1.ASF
:FULLY-SPECIFIED
:DEGREES
183
root -0.228196 18.7371 5.65691 2.99918 -6.48544 2.32309
lowerback 3.73399 -5.27363 10.6427
upperback -0.7108 -6.30357 7.22552
thorax -3.16739 -3.24684 2.06953
lowerneck -12.3296 -5.68486 -9.3109
upperneck 26.561 -4.77594 -4.67083
head 10.7882 -3.70846 -0.74773
rclavicle -2.3059e-014 5.725e-014
rhumerus -7.51364 11.0473 -73.8832
rradius 80.3561
rwrist -21.8536
rhand -13.4434 -43.21
rfingers 7.12502
rthumb 12.6657 -72.806
lclavicle -2.3059e-014 5.725e-014
lhumerus 61.3849 -58.1026 41.3344
lradius 83.8267
lwrist 38.4003
lhand 0.204666 0.439632
lfingers 7.12502
lthumb 25.7864 28.7121
rfemur 0 0 0
rtibia 0
rfoot 0 0
rtoes 0
lfemur -5.20205 3.61277 -17.8048
ltibia 21.5621
lfoot -20.1133 13.3455
ltoes -57.9114
184
root -0.214169 18.7361 5.65142 2.9288 -5.87053 2.36748
lowerback 3.63359 -5.17175 10.8931
upperback -0.711976 -6.16782 7.28841
thorax -3.12613 -3.18059 1.98121
lowerneck -12.0623 -6.02398 -9.80482
upperneck 26.1682 -5.3005 -4.2365
head 10.6342 -3.92603 -0.563736
rclavicle 1.46703e-013 -7.95139e-014
rhumerus -5.80311 10.3604 -73.0401
rradius 78.3498
rwrist -21.8521
rhand -13.3428 -43.8218
rfingers 7.12502
rthumb 12.7628 -73.4117
lclavicle 1.46703e-013 -7.95139e-014
lhumerus 61.7858 -58.2051 41.0155
lradius 84.7023
lwrist 38.4803
lhand -0.309549 0.364991
lfingers 7.12502
lthumb 25.2938 28.708
rfemur 0 0 0
rtibia 0
rfoot 0 0
rtoes 0
lfemur -5.32476 3.60231 -17.8266
ltibia 21.703
lfoot -19.9047 12.7692
ltoes -57.9306
185
root -0.199953 18.7351 5.64514 2.8734 -5.16859 2.44855
lowerback 3.52051 -5.08798 11.1326
upperback -0.71939 -6.05874 7.32832
thorax -3.0862 -3.12742 1.87649
lowerneck -11.7085 -6.33611 -10.0976
upperneck 25.5979 -5.8017 -3.98373
head 10.389 -4.12925 -0.465509
rclavicle -8.34896e-015 9.85972e-014
rhumerus -4.24056 9.61184 -72.2505
rradius 76.4907
rwrist -21.8756
rhand -13.1583 -44.3845
rfingers 7.12502
rthumb 12.9406 -73.9632
lclavicle -8.34896e-015 9.85972e-014
lhumerus 62.1554 -58.3047 40.7154
lradius 85.5471
lwrist 38.3538
lhand -1.01834 0.186806
lfingers 7.12502
lthumb 24.6146 28.6241
rfemur 0 0 0
rtibia 0
rfoot 0 0
rtoes 0
lfemur -5.47498 3.4979 -17.8961
ltibia 21.8371
lfoot -19.6896 12.2429
ltoes -57.9523
186
root -0.186385 18.7335 5.63858 2.81077 -4.42962 2.54369
lowerback 3.41694 -5.03103 11.3404
upperback -0.733088 -5.98432 7.39275
thorax -3.05352 -3.09102 1.81886
lowerneck -11.4107 -6.62105 -10.3413
upperneck 25.0749 -6.23419 -3.85594
head 10.1696 -4.31398 -0.413378
rclavicle -2.38542e-015 0
rhumerus -2.74383 8.92832 -71.4717
rradius 74.7107
rwrist -22.1393
rhand -13.0559 -44.9034
rfingers 7.12502
rthumb 13.0393 -74.4758
lclavicle -2.38542e-015 0
lhumerus 62.3646 -58.3439 40.5236
lradius 86.4269
lwrist 38.0985
lhand -1.66548 -0.170176
lfingers 7.12502
lthumb 23.9942 28.3502
rfemur 0 0 0
rtibia 0
rfoot 0 0
rtoes 0
lfemur -5.61078 3.39245 -17.9795
ltibia 21.963
lfoot -19.4806 11.6883
ltoes -57.926
187
root -0.173037 18.7322 5.63111 2.7183 -3.6812 2.59786
lowerback 3.34052 -4.99849 11.6015
upperback -0.72688 -5.93752 7.4622
thorax -3.02135 -3.06825 1.74255
lowerneck -11.2364 -6.87634 -10.7678
upperneck 24.7247 -6.62223 -3.48951
head 10.0553 -4.47508 -0.253347
rclavicle 4.21423e-014 0
rhumerus -1.27641 8.33742 -70.727
rradius 72.9312
rwrist -22.343
rhand -13.262 -45.2689
rfingers 7.12502
rthumb 12.8407 -74.8539
lclavicle 4.21423e-014 0
lhumerus 62.6149 -58.3141 40.1774
lradius 87.4321
lwrist 37.9365
lhand -2.26116 -0.497844
lfingers 7.12502
lthumb 23.4229 28.0966
rfemur 0 0 0
rtibia 0
rfoot 0 0
rtoes 0
lfemur -5.70245 3.28314 -18.0091
ltibia 22.0804
lfoot -19.2792 11.0766
ltoes -57.8691
188
root -0.159266 18.7319 5.62153 2.6502 -2.98466 2.62565
lowerback 3.45072 -4.97143 11.9483
upperback -0.828491 -5.84679 7.50722
thorax -3.2178 -3.03486 1.61944
lowerneck -11.0501 -7.09464 -11.2837
upperneck 24.4849 -6.975 -2.97603
head 9.99058 -4.61627 -0.0273204
rclavicle 1.66979e-014 -2.54444e-014
rhumerus 0.0432036 7.84395 -70.0242
rradius 71.0126
rwrist -22.0964
rhand -13.5813 -44.814
rfingers 7.12502
rthumb 12.5328 -74.4181
lclavicle 1.66979e-014 -2.54444e-014
lhumerus 62.6483 -58.4251 39.9899
lradius 88.4691
lwrist 37.7536
lhand -2.896 -0.883575
lfingers 7.12502
lthumb 22.8138 27.7873
rfemur 0 0 0
rtibia 0
rfoot 0 0
rtoes 0
lfemur -5.82509 3.24425 -18.0086
ltibia 22.1996
lfoot -19.0728 10.4304
ltoes -57.8157
189
root -0.144967 18.7312 5.6126 2.64172 -2.33479 2.7074
lowerback 3.47408 -4.91901 12.2418
upperback -0.9205 -5.74163 7.5447
thorax -3.34878 -2.99215 1.50547
lowerneck -10.9183 -7.29848 -11.6162
upperneck 24.2326 -7.28158 -2.69587
head 9.91565 -4.74568 0.0924731
rclavicle 1.59028e-015 6.04305e-014
rhumerus 1.50279 7.18325 -69.3942
rradius 68.7787
rwrist -21.2089
rhand -13.4316 -42.8283
rfingers 7.12502
rthumb 12.6771 -72.4236
lclavicle 1.59028e-015 6.04305e-014
lhumerus 62.6347 -58.5494 39.9208
lradius 89.4812
lwrist 37.6185
lhand -3.57281 -1.32082
lfingers 7.12502
lthumb 22.1641 27.4286
rfemur 0 0 0
rtibia 0
rfoot 0 0
rtoes 0
lfemur -6.02225 3.24085 -18.0817
ltibia 22.3279
lfoot -18.8318 9.84132
ltoes -57.8026
190
root -0.130589 18.7304 5.60466 2.64136 -1.69019 2.83151
lowerback 2.8849 -4.80282 12.4334
upperback -0.616412 -5.72587 7.53533
thorax -2.7112 -2.95598 1.31336
lowerneck -11.0323 -7.52939 -11.5338
upperneck 23.7369 -7.62815 -2.61657
head 9.77201 -4.86964 0.0704805
rclavicle -5.92378e-014 -4.77083e-014
rhumerus 3.44618 6.28198 -68.7439
rradius 66.8335
rwrist -20.0019
rhand -13.2857 -44.5185
rfingers 7.12502
rthumb 12.8178 -74.105
lclavicle -5.92378e-014 -4.77083e-014
lhumerus 63.4612 -58.2597 39.0168
lradius 90.5306
lwrist 37.6363
lhand -4.25048 -1.8327
lfingers 7.12502
lthumb 21.5134 26.9925
rfemur 0 0 0
rtibia 0
rfoot 0 0
rtoes 0
lfemur -6.22791 3.13198 -18.2149
ltibia 22.4712
lfoot -18.6295 9.33109
ltoes -57.8094
191
root -0.116906 18.7298 5.59581 2.58305 -1.02514 2.91394
lowerback 3.0123 -4.74006 12.8051
upperback -0.752377 -5.58136 7.47495
thorax -2.96079 -2.90065 1.06667
lowerneck -10.8245 -7.67742 -11.4856
upperneck 23.5438 -7.89766 -2.5338
head 9.67605 -4.97342 0.0706883
rclavicle -4.33351e-014 -5.725e-014
rhumerus 4.44038 5.65957 -68.0086
rradius 64.9876
rwrist -19.0299
rhand -13.0125 -43.0475
rfingers 7.12502
rthumb 13.0811 -72.6173
lclavicle -4.33351e-014 -5.725e-014
lhumerus 63.5566 -58.5494 38.6837
lradius 91.6087
lwrist 37.6389
lhand -4.84238 -2.50823
lfingers 7.12502
lthumb 20.9448 26.3809
rfemur 0 0 0
rtibia 0
rfoot 0 0
rtoes 0
lfemur -6.37353 2.95607 -18.3044
ltibia 22.6296
lfoot -18.4431 8.87361
ltoes -57.8045
192
root -0.103553 18.7294 5.5857 2.51382 -0.300284 2.95006
lowerback 3.38533 -4.69898 13.103
upperback -1.02069 -5.39878 7.53793
thorax -3.46758 -2.83919 1.01681
lowerneck -10.5981 -7.81203 -11.6982
upperneck 23.4583 -8.11977 -2.35123
head 9.63313 -5.0712 0.1486
rclavicle -5.4467e-014 4.45278e-014
rhumerus 5.29754 5.16366 -67.1252
rradius 63.3629
rwrist -18.5346
rhand -12.8227 -43.4807
rfingers 7.12502
rthumb 13.2641 -73.0386
lclavicle -5.4467e-014 4.45278e-014
lhumerus 63.4463 -58.9443 38.7077
lradius 92.6905
lwrist 37.6651
lhand -5.26884 -2.94068
lfingers 7.12502
lthumb 20.5351 25.9932
rfemur 0 0 0
rtibia 0
rfoot 0 0
rtoes 0
lfemur -6.53125 2.83992 -18.332
ltibia 22.8051
lfoot -18.1762 8.36639
ltoes -57.8272
193
root -0.0898546 18.7297 5.57421 2.48283 0.465845 2.98742
lowerback 3.54135 -4.63538 13.3695
upperback -1.1638 -5.24448 7.6036
thorax -3.71649 -2.77898 0.957983
lowerneck -10.4069 -7.97798 -11.9278
upperneck 23.2392 -8.39474 -2.09734
head 9.55656 -5.18266 0.248589
rclavicle -5.52621e-014 6.36111e-014
rhumerus 6.47214 4.61713 -66.2056
rradius 61.4634
rwrist -18.2625
rhand -12.9646 -43.869
rfingers 7.12502
rthumb 13.1273 -73.4358
lclavicle -5.52621e-014 6.36111e-014
lhumerus 63.7201 -59.1615 38.3612
lradius 93.7851
lwrist 37.4935
lhand -5.68297 -3.26514
lfingers 7.12502
lthumb 20.1371 25.7112
rfemur 0 0 0
rtibia 0
rfoot 0 0
rtoes 0
lfemur -6.75266 2.73376 -18.3542
ltibia 22.9991
lfoot -17.8997 7.76268
ltoes -57.8475
194
root -0.075871 18.7298 5.56264 2.44381 1.25378 3.01455
lowerback 3.45596 -4.56181 13.6624
upperback -1.13546 -5.14757 7.63362
thorax -3.65448 -2.73118 0.817904
lowerneck -10.2583 -8.16446 -12.1054
upperneck 22.8582 -8.72245 -1.75673
head 9.43491 -5.29984 0.365693
rclavicle -8.70677e-014 1.27222e-014
rhumerus 7.7678 3.93997 -65.3238
rradius 59.5766
rwrist -17.8625
rhand -13.0191 -44.2847
rfingers 7.12502
rthumb 13.0748 -73.8549
lclavicle -8.70677e-014 1.27222e-014
lhumerus 64.4221 -59.1502 37.5106
lradius 94.9019
lwrist 37.2082
lhand -6.3445 -3.80783
lfingers 7.12502
lthumb 19.5012 25.2342
rfemur 0 0 0
rtibia 0
rfoot 0 0
rtoes 0
lfemur -6.97254 2.57989 -18.3679
ltibia 23.2022
lfoot -17.6361 7.1437
ltoes -57.8558
195
root -0.062133 18.7281 5.55149 2.38543 2.06618 3.02544
lowerback 3.25905 -4.46343 13.9145
upperback -1.02237 -5.05475 7.69889
thorax -3.43051 -2.67477 0.720761
lowerneck -10.198 -8.37883 -12.3854
upperneck 22.4793 -9.07556 -1.31864
head 9.34491 -5.42738 0.523107
rclavicle 9.14409e-015 7.95139e-014
rhumerus 9.04235 3.09743 -64.4231
rradius 57.7264
rwrist -17.1981
rhand -13.1499 -44.2585
rfingers 7.12502
rthumb 12.9487 -73.8367
lclavicle 9.14409e-015 7.95139e-014
lhumerus 65.2887 -59.0128 36.5915
lradius 96.0698
lwrist 37.2645
lhand -6.99702 -4.22573
lfingers 7.12502
lthumb 18.8737 24.8786
rfemur 0 0 0
rtibia 0
rfoot 0 0
rtoes 0
lfemur -7.17834 2.40774 -18.3642
ltibia 23.4094
lfoot -17.381 6.53067
ltoes -57.9072
196
root -0.0485582 18.7255 5.5401 2.32448 2.93183 3.06782
lowerback 2.83738 -4.32137 14.0646
upperback -0.757974 -4.97962 7.75969
thorax -2.9087 -2.60741 0.644347
lowerneck -10.1888 -8.65922 -12.7116
upperneck 22.0107 -9.5335 -0.737289
head 9.25159 -5.58993 0.720881
rclavicle -3.18055e-015 -2.22639e-014
rhumerus 10.4283 2.0398 -63.4827
rradius 55.7914
rwrist -16.424
rhand -13.4412 -43.5326
rfingers 7.12502
rthumb 12.6679 -73.1284
lclavicle -3.18055e-015 -2.22639e-014
lhumerus 66.4004 -58.6402 35.5298
lradius 97.2422
lwrist 37.7412
lhand -7.25496 -4.51107
lfingers 7.12502
lthumb 18.6256 24.6172
rfemur 0 0 0
rtibia 0
rfoot 0 0
rtoes 0
lfemur -7.39286 2.21897 -18.3923
ltibia 23.6215
lfoot -17.1303 5.86105
ltoes -57.9751
197
root -0.035904 18.7237 5.52868 2.28054 3.86737 3.08281
lowerback 3.2331 -4.24595 14.4069
upperback -1.08176 -4.72885 7.76103
thorax -3.48761 -2.52246 0.502407
lowerneck -9.65692 -8.86696 -13.0764
upperneck 21.7808 -9.93763 -0.282523
head 9.1446 -5.75663 0.90568
rclavicle -2.22639e-014 4.13472e-014
rhumerus 10.7323 1.35567 -62.4323
rradius 54.1178
rwrist -15.7366
rhand -13.459 -42.976
rfingers 7.12502
rthumb 12.6507 -72.5729
lclavicle -2.22639e-014 4.13472e-014
lhumerus 66.6513 -58.9407 35.1769
lradius 98.3667
lwrist 38.1964
lhand -7.37843 -4.89792
lfingers 7.12502
lthumb 18.5068 24.2417
rfemur 0 0 0
rtibia 0
rfoot 0 0
rtoes 0
lfemur -7.63969 2.02952 -18.3876
ltibia 23.8381
lfoot -16.8413 5.13084
ltoes -57.9783
198
root -0.0250815 18.7223 5.51686 2.25428 4.85516 3.07115
lowerback 3.27914 -4.12566 14.7115
upperback -1.17757 -4.52541 7.77056
thorax -3.62202 -2.43474 0.345885
lowerneck -9.3179 -9.11528 -13.173
upperneck 21.3751 -10.3802 0.0121628
head 8.99167 -5.93079 0.987045
rclavicle 2.8625e-014 -6.36111e-015
rhumerus 11.1458 0.574221 -61.2371
rradius 52.6208
rwrist -15.2655
rhand -13.4268 -42.8977
rfingers 7.12502
rthumb 12.6817 -72.4926
lclavicle 2.8625e-014 -6.36111e-015
lhumerus 67.5562 -58.8728 34.2246
lradius 99.4564
lwrist 38.4874
lhand -7.6133 -5.38475
lfingers 7.12502
lthumb 18.2809 23.7762
rfemur 0 0 0
rtibia 0
rfoot 0 0
rtoes 0
lfemur -7.92097 1.88958 -18.3515
ltibia 24.0525
lfoot -16.5069 4.3853
ltoes -57.9241
